HIERARCHY
ROOT joint_Root
{
  OFFSET 0 0 0
  CHANNELS 6 Xposition Yposition Zposition Zrotation Xrotation Yrotation
  JOINT Hips
  {
    OFFSET 0.847027 93.984 -452.225
    CHANNELS 6 Xposition Yposition Zposition Zrotation Xrotation Yrotation
    JOINT Spine
    {
      OFFSET 15.7357 0 0
      CHANNELS 6 Xposition Yposition Zposition Zrotation Xrotation Yrotation
      JOINT Chest
      {
        OFFSET 8.98455 -0.406207 0
        CHANNELS 6 Xposition Yposition Zposition Zrotation Xrotation Yrotation
        JOINT Neck
        {
          OFFSET 16.3773 0 0
          CHANNELS 6 Xposition Yposition Zposition Zrotation Xrotation Yrotation
          JOINT Head
          {
            OFFSET 6.45672 0 0
            CHANNELS 6 Xposition Yposition Zposition Zrotation Xrotation Yrotation
            End Site
            {
              OFFSET 0 0 0
            }
          }
        }
        JOINT Shoulder_L
        {
          OFFSET 12.9942 -0.242716 4.98039
          CHANNELS 6 Xposition Yposition Zposition Zrotation Xrotation Yrotation
          JOINT UpperArm_L
          {
            OFFSET 5.34809 0 0
            CHANNELS 6 Xposition Yposition Zposition Zrotation Xrotation Yrotation
            JOINT LowerArm_L
            {
              OFFSET 24.3286 1.87007e-05 0
              CHANNELS 6 Xposition Yposition Zposition Zrotation Xrotation Yrotation
              JOINT Hand_L
              {
                OFFSET 22.2916 0 0
                CHANNELS 6 Xposition Yposition Zposition Zrotation Xrotation Yrotation
                End Site
                {
                  OFFSET 0 0 0
                }
              }
            }
          }
        }
        JOINT Shoulder_R
        {
          OFFSET 12.9945 -0.242716 -4.98039
          CHANNELS 6 Xposition Yposition Zposition Zrotation Xrotation Yrotation
          JOINT UpperArm_R
          {
            OFFSET -5.34813 0 0
            CHANNELS 6 Xposition Yposition Zposition Zrotation Xrotation Yrotation
            JOINT LowerArm_R
            {
              OFFSET -24.3289 0.000322201 0
              CHANNELS 6 Xposition Yposition Zposition Zrotation Xrotation Yrotation
              JOINT Hand_R
              {
                OFFSET -22.2915 -0.000108084 0
                CHANNELS 6 Xposition Yposition Zposition Zrotation Xrotation Yrotation
                End Site
                {
                  OFFSET 0 0 0
                }
              }
            }
          }
        }
      }
    }
    JOINT UpperLeg_L
    {
      OFFSET -2.19248 -6.46944 0
      CHANNELS 6 Xposition Yposition Zposition Zrotation Xrotation Yrotation
      JOINT LowerLeg_L
      {
        OFFSET 39.0811 0 -1.23785e-05
        CHANNELS 6 Xposition Yposition Zposition Zrotation Xrotation Yrotation
        JOINT Foot_L
        {
          OFFSET 40.9854 0 -1.26872e-05
          CHANNELS 6 Xposition Yposition Zposition Zrotation Xrotation Yrotation
          JOINT Toes_L
          {
            OFFSET 11.7543 0 0
            CHANNELS 6 Xposition Yposition Zposition Zrotation Xrotation Yrotation
            End Site
            {
              OFFSET 0 0 0
            }
          }
        }
      }
    }
    JOINT UpperLeg_R
    {
      OFFSET -2.19251 6.46944 0
      CHANNELS 6 Xposition Yposition Zposition Zrotation Xrotation Yrotation
      JOINT LowerLeg_R
      {
        OFFSET -39.0811 -0.00228153 -0.0401928
        CHANNELS 6 Xposition Yposition Zposition Zrotation Xrotation Yrotation
        JOINT Foot_R
        {
          OFFSET -40.9854 0 0
          CHANNELS 6 Xposition Yposition Zposition Zrotation Xrotation Yrotation
          JOINT Toes_R
          {
            OFFSET -11.7543 0 0
            CHANNELS 6 Xposition Yposition Zposition Zrotation Xrotation Yrotation
            End Site
            {
              OFFSET 0 0 0
            }
          }
        }
      }
    }
  }
}
MOTION
Frames:	6
Frame Time:	0.0333333
0 0 0 0 0 -0 9.85011 89.0367 20.1862 86.7769 -9.11741 7.80744 15.7357 5.1072e-06 -5.51765e-07 79.8506 80.9285 -80.266 8.98455 -0.406207 -4.3199e-07 10.0931 -3.18502 -0.549046 16.3773 -1.3905e-06 -6.99897e-07 3.26027 -1.47536 1.57309 6.45672 -1.25837e-06 -1.02172e-07 -4.26342 1.37591 5.36576 12.9942 -0.242716 4.98039 -90.2432 0.715257 -86.2232 5.34809 -7.22636e-06 -6.2814e-07 -52.959 13.6068 -18.0612 24.3286 1.87007e-05 4.90208e-06 -0.30275 -0.500303 -31.1497 22.2916 -9.88446e-07 4.63217e-06 19.0281 5.58406 -10.4323 12.9945 -0.242716 -4.98039 87.0253 11.3883 -90.2556 -5.34813 -1.25947e-06 -3.79883e-06 -59.586 11.5904 17.1098 -24.3289 0.000322201 -8.65921e-06 7.443 8.10531 -42.822 -22.2915 -0.000108084 -4.47941e-06 6.79581 5.59148 -10.8461 -2.19248 -6.46944 -1.22534e-07 -172.97 -24.5153 -17.1433 39.0811 -6.73843e-06 -1.23785e-05 0.178878 -0.191319 41.2485 40.9854 -6.48686e-06 -1.26872e-05 1.97527 2.98959 -64.8662 11.7543 -2.30145e-07 3.05095e-06 0.035509 -0.0557715 -17.5708 -2.19251 6.46944 -1.45247e-06 171.819 26.0914 155.065 -39.0811 -0.00228153 -0.0401928 0.477381 -0.450018 46.7529 -40.9854 7.72618e-06 5.99936e-06 -17.9408 9.37842 -46.6251 -11.7543 -5.6619e-06 -5.58687e-06 0.203223 -0.235203 -18.8597 
0 0 0 0 0 -0 9.54587 89.3035 18.4934 86.7188 -9.86552 8.28821 15.7357 5.1072e-06 -5.51765e-07 78.9422 80.9477 -79.0215 8.98455 -0.406207 -4.3199e-07 10.0135 -3.45209 0.144099 16.3773 -1.3905e-06 -6.99897e-07 3.66715 -0.879495 1.61223 6.45672 -1.25837e-06 -1.02172e-07 -3.86795 2.62668 5.05388 12.9942 -0.242716 4.98039 -90.1828 0.532378 -86.0545 5.34809 -7.22636e-06 -6.2814e-07 -50.8497 12.7095 -19.7039 24.3286 1.87007e-05 4.90208e-06 -0.676746 -1.01589 -33.683 22.2916 -9.88446e-07 4.63217e-06 19.2371 5.58685 -10.5851 12.9945 -0.242716 -4.98039 86.9041 11.113 -89.325 -5.34813 -1.25947e-06 -3.79883e-06 -59.6879 10.7624 20.5318 -24.3289 0.000322201 -8.65921e-06 7.36045 8.05063 -42.6915 -22.2915 -0.000108084 -4.47941e-06 6.4553 5.59009 -10.7669 -2.19248 -6.46944 -1.22534e-07 -172.706 -23.6635 -16.806 39.0811 -6.73843e-06 -1.23785e-05 0.162893 -0.185432 39.4441 40.9854 -6.48686e-06 -1.26872e-05 1.15687 1.95891 -63.135 11.7543 -2.30145e-07 3.05095e-06 0.0364256 -0.0572249 -17.5967 -2.19251 6.46944 -1.45247e-06 169.139 24.0569 157.4 -39.0811 -0.00228153 -0.0401928 0.569407 -0.44941 51.586 -40.9854 7.72618e-06 5.99936e-06 -16.2781 9.28852 -48.1064 -11.7543 -5.6619e-06 -5.58687e-06 0.203573 -0.235603 -18.8635 
0 0 0 0 0 -0 9.14211 89.3052 16.6503 86.9269 -10.6764 8.81807 15.7357 5.1072e-06 -5.51765e-07 78.4811 80.8775 -78.3363 8.98455 -0.406207 -4.3199e-07 10.131 -3.61688 0.610396 16.3773 -1.3905e-06 -6.99897e-07 4.0391 -0.351468 1.59724 6.45672 -1.25837e-06 -1.02172e-07 -3.68508 3.72966 4.74698 12.9942 -0.242716 4.98039 -90.1204 0.344669 -85.755 5.34809 -7.22636e-06 -6.2814e-07 -49.0133 11.4653 -21.0616 24.3286 1.87007e-05 4.90208e-06 -0.947661 -1.28484 -36.4217 22.2916 -9.88446e-07 4.63217e-06 19.6423 5.58756 -10.6256 12.9945 -0.242716 -4.98039 86.8215 10.7757 -88.4575 -5.34813 -1.25947e-06 -3.79883e-06 -59.5271 9.74048 22.9672 -24.3289 0.000322201 -8.65921e-06 7.52429 8.32958 -42.3609 -22.2915 -0.000108084 -4.47941e-06 6.23435 5.59293 -10.9291 -2.19248 -6.46944 -1.22534e-07 -172.566 -23.3283 -16.8827 39.0811 -6.73843e-06 -1.23785e-05 0.153751 -0.181307 38.3619 40.9854 -6.48686e-06 -1.26872e-05 0.449764 1.39322 -61.7888 11.7543 -2.30145e-07 3.05095e-06 0.0412687 -0.0650077 -17.7345 -2.19251 6.46944 -1.45247e-06 166.707 22.0599 159.769 -39.0811 -0.00228153 -0.0401928 0.634488 -0.424564 55.821 -40.9854 7.72618e-06 5.99936e-06 -13.5427 8.24504 -50.6701 -11.7543 -5.6619e-06 -5.58687e-06 0.205371 -0.237793 -18.8846 
0 0 0 0 0 -0 8.60643 89.0597 14.6029 87.2241 -11.416 9.32504 15.7357 5.1072e-06 -5.51765e-07 78.2885 80.7216 -77.9734 8.98455 -0.406207 -4.3199e-07 10.4311 -3.7339 0.97103 16.3773 -1.3905e-06 -6.99897e-07 4.42135 0.0979587 1.57057 6.45672 -1.25837e-06 -1.02172e-07 -3.80369 4.62003 4.30993 12.9942 -0.242716 4.98039 -90.0537 0.151008 -85.4184 5.34809 -7.22636e-06 -6.2814e-07 -47.6023 9.81031 -22.0606 24.3286 1.87007e-05 4.90208e-06 -1.31072 -1.59943 -39.3381 22.2916 -9.88446e-07 4.63217e-06 20.1901 5.58875 -10.6919 12.9945 -0.242716 -4.98039 86.7744 10.4454 -87.7321 -5.34813 -1.25947e-06 -3.79883e-06 -59.2197 8.51131 24.5624 -24.3289 0.000322201 -8.65921e-06 7.55113 8.48682 -41.9353 -22.2915 -0.000108084 -4.47941e-06 5.85147 5.5955 -11.0752 -2.19248 -6.46944 -1.22534e-07 -172.399 -23.3405 -17.5221 39.0811 -6.73843e-06 -1.23785e-05 0.149888 -0.179026 38.0152 40.9854 -6.48686e-06 -1.26872e-05 -0.403178 1.35296 -60.6281 11.7543 -2.30145e-07 3.05095e-06 0.0557339 -0.0884899 -18.1488 -2.19251 6.46944 -1.45247e-06 164.703 20.4932 162.237 -39.0811 -0.00228153 -0.0401928 0.680299 -0.396686 59.104 -40.9854 7.72618e-06 5.99936e-06 -10.3914 6.21707 -53.1603 -11.7543 -5.6619e-06 -5.58687e-06 0.203657 -0.235735 -18.8648 
0 0 0 0 0 -0 7.96797 88.5718 12.269 87.6299 -12.0754 9.57749 15.7357 5.1072e-06 -5.51765e-07 78.419 80.5473 -77.9952 8.98455 -0.406207 -4.3199e-07 10.7855 -3.75687 1.20225 16.3773 -1.3905e-06 -6.99897e-07 4.64448 0.444606 1.41804 6.45672 -1.25837e-06 -1.02172e-07 -4.17885 5.25617 4.19299 12.9942 -0.242716 4.98039 -89.8497 -0.408812 -84.8126 5.34809 -7.22636e-06 -6.2814e-07 -47.0338 8.16306 -23.2841 24.3286 1.87007e-05 4.90208e-06 -1.73343 -1.94048 -41.7986 22.2916 -9.88446e-07 4.63217e-06 20.9295 5.59104 -10.821 12.9945 -0.242716 -4.98039 86.7501 10.1027 -87.0626 -5.34813 -1.25947e-06 -3.79883e-06 -58.9809 7.31856 25.3154 -24.3289 0.000322201 -8.65921e-06 7.56284 8.61979 -41.5405 -22.2915 -0.000108084 -4.47941e-06 5.88188 5.59371 -10.9729 -2.19248 -6.46944 -1.22534e-07 -172.512 -23.5146 -19.1051 39.0811 -6.73843e-06 -1.23785e-05 0.179704 -0.214314 38.3573 40.9854 -6.48686e-06 -1.26872e-05 -0.515647 1.46333 -59.6797 11.7543 -2.30145e-07 3.05095e-06 0.0673032 -0.10757 -18.484 -2.19251 6.46944 -1.45247e-06 163.151 19.1634 164.587 -39.0811 -0.00228153 -0.0401928 0.714539 -0.380656 61.0856 -40.9854 7.72618e-06 5.99936e-06 -7.91255 4.04262 -54.6875 -11.7543 -5.6619e-06 -5.58687e-06 0.21703 -0.251899 -19.0191 
0 0 0 0 0 -0 7.2181 87.8518 9.57545 88.0972 -12.6809 9.41199 15.7357 5.1072e-06 -5.51765e-07 78.9321 80.4462 -78.4096 8.98455 -0.406207 -4.3199e-07 11.0193 -3.62595 1.39454 16.3773 -1.3905e-06 -6.99897e-07 4.9657 0.719 1.2234 6.45672 -1.25837e-06 -1.02172e-07 -4.85152 5.62627 4.05839 12.9942 -0.242716 4.98039 -89.5845 -1.09328 -84.1909 5.34809 -7.22636e-06 -6.2814e-07 -47.2891 6.44894 -24.2309 24.3286 1.87007e-05 4.90208e-06 -1.18512 -1.21241 -44.3574 22.2916 -9.88446e-07 4.63217e-06 21.5701 5.58916 -10.7138 12.9945 -0.242716 -4.98039 86.8021 9.74922 -86.7397 -5.34813 -1.25947e-06 -3.79883e-06 -58.8784 6.15899 25.588 -24.3289 0.000322201 -8.65921e-06 7.72958 8.87582 -41.3424 -22.2915 -0.000108084 -4.47941e-06 5.83248 5.59165 -10.8562 -2.19248 -6.46944 -1.22534e-07 -172.827 -23.8705 -21.6519 39.0811 -6.73843e-06 -1.23785e-05 0.215214 -0.25288 39.0608 40.9854 -6.48686e-06 -1.26872e-05 -0.678645 1.64127 -58.6835 11.7543 -2.30145e-07 3.05095e-06 0.0792581 -0.127523 -18.8336 -2.19251 6.46944 -1.45247e-06 162.31 17.6741 166.589 -39.0811 -0.00228153 -0.0401928 0.724121 -0.3719 61.7444 -40.9854 7.72618e-06 5.99936e-06 -5.99842 2.74448 -55.5605 -11.7543 -5.6619e-06 -5.58687e-06 0.22237 -0.258358 -19.0804 
